<svg width="1363" height="301" viewBox="0 0 1363 301" fill="none" xmlns="http://www.w3.org/2000/svg">
<rect width="1363" height="301" rx="15" fill="white"/>
<path d="M0 15C0 6.71573 6.71573 0 15 0H37V301H15C6.71573 301 0 294.284 0 286V15Z" fill="#1400FF"/>
<path d="M110.933 127.376H100.862L100.809 121.2H108.973C110.441 121.2 111.613 121.039 112.491 120.716C113.368 120.376 114.004 119.884 114.397 119.239C114.809 118.595 115.015 117.789 115.015 116.822C115.015 115.712 114.809 114.817 114.397 114.137C113.986 113.456 113.332 112.964 112.437 112.66C111.56 112.337 110.423 112.176 109.026 112.176H104.407V144H94.981V104.898H109.026C111.443 104.898 113.601 105.122 115.499 105.57C117.396 106 119.008 106.662 120.333 107.557C121.675 108.452 122.696 109.58 123.394 110.941C124.092 112.284 124.441 113.868 124.441 115.694C124.441 117.288 124.101 118.783 123.421 120.179C122.741 121.576 121.604 122.713 120.01 123.59C118.435 124.449 116.277 124.897 113.538 124.933L110.933 127.376ZM110.557 144H98.5796L101.802 136.749H110.557C111.846 136.749 112.876 136.552 113.646 136.158C114.433 135.746 114.997 135.209 115.337 134.547C115.695 133.867 115.875 133.115 115.875 132.291C115.875 131.288 115.704 130.42 115.364 129.686C115.042 128.952 114.523 128.388 113.807 127.994C113.09 127.582 112.133 127.376 110.933 127.376H103.011L103.064 121.2H112.544L114.747 123.67C117.361 123.563 119.428 123.93 120.95 124.771C122.49 125.613 123.591 126.723 124.253 128.102C124.916 129.48 125.247 130.921 125.247 132.425C125.247 134.986 124.692 137.125 123.582 138.844C122.49 140.562 120.852 141.852 118.667 142.711C116.483 143.57 113.78 144 110.557 144ZM147.027 136.937V114.942H156.104V144H147.618L147.027 136.937ZM147.886 131.029L150.25 130.975C150.25 132.927 150.017 134.735 149.551 136.4C149.086 138.047 148.396 139.479 147.483 140.697C146.588 141.914 145.478 142.863 144.153 143.543C142.846 144.206 141.333 144.537 139.615 144.537C138.182 144.537 136.867 144.34 135.667 143.946C134.485 143.535 133.465 142.899 132.605 142.04C131.746 141.162 131.075 140.043 130.591 138.683C130.126 137.304 129.893 135.657 129.893 133.741V114.942H138.943V133.795C138.943 134.439 139.024 134.994 139.185 135.46C139.346 135.925 139.579 136.319 139.883 136.642C140.188 136.946 140.564 137.179 141.011 137.34C141.477 137.483 142.005 137.555 142.596 137.555C143.956 137.555 145.022 137.268 145.792 136.695C146.561 136.122 147.098 135.344 147.403 134.359C147.725 133.374 147.886 132.264 147.886 131.029ZM170.66 114.942V144H161.583V114.942H170.66ZM161.045 107.45C161.045 106.161 161.511 105.104 162.442 104.281C163.373 103.457 164.581 103.045 166.067 103.045C167.553 103.045 168.762 103.457 169.693 104.281C170.624 105.104 171.089 106.161 171.089 107.45C171.089 108.739 170.624 109.795 169.693 110.619C168.762 111.442 167.553 111.854 166.067 111.854C164.581 111.854 163.373 111.442 162.442 110.619C161.511 109.795 161.045 108.739 161.045 107.45ZM185.806 102.75V144H176.729V102.75H185.806ZM208.096 137.34V102.75H217.2V144H209.036L208.096 137.34ZM190.264 129.82V129.256C190.264 127.054 190.506 125.049 190.989 123.241C191.473 121.415 192.189 119.848 193.138 118.541C194.087 117.216 195.268 116.196 196.683 115.479C198.097 114.763 199.726 114.405 201.57 114.405C203.217 114.405 204.659 114.79 205.894 115.56C207.129 116.312 208.186 117.368 209.063 118.729C209.94 120.09 210.656 121.683 211.211 123.509C211.766 125.318 212.187 127.269 212.474 129.364V130.035C212.187 132.005 211.766 133.867 211.211 135.621C210.656 137.358 209.94 138.897 209.063 140.24C208.186 141.583 207.12 142.639 205.867 143.409C204.632 144.161 203.182 144.537 201.517 144.537C199.673 144.537 198.043 144.17 196.629 143.436C195.232 142.702 194.06 141.673 193.111 140.348C192.18 139.023 191.473 137.465 190.989 135.675C190.506 133.884 190.264 131.933 190.264 129.82ZM199.314 129.256V129.82C199.314 130.912 199.386 131.924 199.529 132.855C199.673 133.786 199.914 134.61 200.254 135.326C200.612 136.024 201.078 136.57 201.651 136.964C202.242 137.358 202.967 137.555 203.826 137.555C204.99 137.555 205.948 137.277 206.7 136.722C207.47 136.167 208.034 135.379 208.392 134.359C208.768 133.338 208.929 132.139 208.875 130.76V128.639C208.911 127.457 208.83 126.419 208.633 125.523C208.436 124.61 208.123 123.849 207.693 123.241C207.282 122.632 206.753 122.175 206.109 121.871C205.482 121.549 204.739 121.388 203.88 121.388C203.038 121.388 202.322 121.585 201.731 121.979C201.159 122.372 200.693 122.927 200.335 123.644C199.977 124.342 199.717 125.174 199.556 126.141C199.395 127.09 199.314 128.128 199.314 129.256ZM227.432 104.898H235.113L243.841 132.103L252.569 104.898H260.25L246.956 144H240.726L227.432 104.898ZM222.759 104.898H230.708L232.186 134.869V144H222.759V104.898ZM256.973 104.898H264.949V144H255.496V134.869L256.973 104.898ZM284.634 144.537C282.271 144.537 280.158 144.17 278.296 143.436C276.434 142.684 274.859 141.655 273.57 140.348C272.299 139.041 271.323 137.537 270.643 135.836C269.98 134.135 269.649 132.336 269.649 130.438V129.417C269.649 127.287 269.944 125.318 270.535 123.509C271.126 121.683 272.003 120.09 273.167 118.729C274.331 117.368 275.79 116.312 277.544 115.56C279.299 114.79 281.34 114.405 283.667 114.405C285.726 114.405 287.57 114.736 289.2 115.399C290.829 116.061 292.208 117.01 293.335 118.246C294.481 119.481 295.35 120.976 295.94 122.73C296.549 124.485 296.854 126.454 296.854 128.639V132.318H273.113V126.651H288.018V125.953C288.036 124.986 287.866 124.163 287.508 123.482C287.168 122.802 286.666 122.283 286.004 121.925C285.341 121.567 284.536 121.388 283.587 121.388C282.602 121.388 281.788 121.603 281.143 122.032C280.516 122.462 280.024 123.053 279.666 123.805C279.326 124.539 279.084 125.389 278.941 126.356C278.798 127.323 278.726 128.343 278.726 129.417V130.438C278.726 131.512 278.869 132.488 279.156 133.365C279.46 134.243 279.89 134.994 280.445 135.621C281.018 136.23 281.698 136.704 282.486 137.044C283.292 137.385 284.205 137.555 285.225 137.555C286.46 137.555 287.678 137.322 288.877 136.856C290.077 136.391 291.106 135.621 291.966 134.547L296.075 139.435C295.484 140.276 294.642 141.091 293.55 141.878C292.476 142.666 291.187 143.311 289.683 143.812C288.179 144.295 286.496 144.537 284.634 144.537Z" fill="black"/>
<path d="M114.473 55.1172V80H109.346L99.3486 63.3203V80H94.2217V55.1172H99.3486L109.363 71.814V55.1172H114.473ZM128.606 75.8301V67.5928C128.606 67.0003 128.51 66.4933 128.316 66.0718C128.122 65.6388 127.82 65.3027 127.41 65.0635C127.011 64.8242 126.493 64.7046 125.855 64.7046C125.308 64.7046 124.835 64.8014 124.437 64.9951C124.038 65.1774 123.73 65.4451 123.514 65.7983C123.297 66.1401 123.189 66.5446 123.189 67.0117H118.267C118.267 66.2256 118.449 65.4793 118.814 64.7729C119.179 64.0666 119.708 63.4456 120.403 62.9102C121.098 62.3633 121.924 61.936 122.881 61.6284C123.85 61.3208 124.932 61.167 126.128 61.167C127.564 61.167 128.84 61.4062 129.957 61.8848C131.073 62.3633 131.95 63.0811 132.588 64.0381C133.238 64.9951 133.562 66.1914 133.562 67.627V75.5396C133.562 76.5535 133.625 77.3853 133.75 78.0347C133.876 78.6727 134.058 79.231 134.297 79.7095V80H129.324C129.085 79.4987 128.903 78.8721 128.777 78.1201C128.663 77.3568 128.606 76.5934 128.606 75.8301ZM129.256 68.7378L129.29 71.5234H126.539C125.889 71.5234 125.325 71.5975 124.847 71.7456C124.368 71.8937 123.975 72.1045 123.667 72.3779C123.36 72.64 123.132 72.9476 122.984 73.3008C122.847 73.654 122.779 74.0413 122.779 74.4629C122.779 74.8844 122.876 75.2661 123.069 75.6079C123.263 75.9383 123.542 76.2004 123.907 76.394C124.271 76.5763 124.699 76.6675 125.188 76.6675C125.929 76.6675 126.573 76.5194 127.12 76.2231C127.667 75.9269 128.088 75.5623 128.384 75.1294C128.692 74.6965 128.851 74.2863 128.863 73.8989L130.162 75.9839C129.979 76.451 129.729 76.9352 129.41 77.4365C129.102 77.9378 128.709 78.4106 128.23 78.855C127.752 79.2879 127.177 79.6468 126.504 79.9316C125.832 80.2051 125.035 80.3418 124.112 80.3418C122.938 80.3418 121.873 80.1082 120.916 79.6411C119.97 79.1626 119.218 78.5075 118.66 77.6758C118.113 76.8327 117.84 75.8757 117.84 74.8047C117.84 73.8363 118.022 72.9761 118.387 72.2241C118.751 71.4722 119.287 70.8398 119.993 70.3271C120.711 69.8031 121.605 69.41 122.676 69.1479C123.747 68.8745 124.989 68.7378 126.402 68.7378H129.256ZM148.277 75.9668V53.75H153.233V80H148.772L148.277 75.9668ZM136.587 70.9766V70.6177C136.587 69.2049 136.747 67.9232 137.066 66.7725C137.385 65.6104 137.852 64.6134 138.467 63.7817C139.083 62.95 139.84 62.3063 140.74 61.8506C141.64 61.3949 142.666 61.167 143.816 61.167C144.899 61.167 145.844 61.3949 146.653 61.8506C147.474 62.3063 148.169 62.9557 148.738 63.7988C149.319 64.6305 149.786 65.616 150.14 66.7554C150.493 67.8833 150.749 69.1195 150.909 70.4639V71.25C150.749 72.5374 150.493 73.7337 150.14 74.8389C149.786 75.944 149.319 76.9124 148.738 77.7441C148.169 78.5645 147.474 79.2025 146.653 79.6582C145.833 80.1139 144.876 80.3418 143.782 80.3418C142.632 80.3418 141.606 80.1082 140.706 79.6411C139.817 79.174 139.065 78.5189 138.45 77.6758C137.846 76.8327 137.385 75.8415 137.066 74.7021C136.747 73.5628 136.587 72.321 136.587 70.9766ZM141.509 70.6177V70.9766C141.509 71.7399 141.566 72.452 141.68 73.1128C141.806 73.7736 142.005 74.3604 142.278 74.873C142.563 75.3743 142.928 75.7674 143.372 76.0522C143.828 76.3257 144.38 76.4624 145.03 76.4624C145.873 76.4624 146.568 76.2744 147.115 75.8984C147.662 75.5111 148.077 74.9813 148.362 74.3091C148.659 73.6369 148.829 72.8621 148.875 71.9849V69.7461C148.841 69.0283 148.738 68.3846 148.567 67.8149C148.408 67.2339 148.169 66.7383 147.85 66.3281C147.542 65.918 147.155 65.599 146.688 65.3711C146.232 65.1432 145.691 65.0293 145.064 65.0293C144.426 65.0293 143.879 65.1774 143.423 65.4736C142.968 65.7585 142.597 66.1515 142.312 66.6528C142.039 67.1541 141.834 67.7466 141.697 68.4302C141.572 69.1024 141.509 69.8315 141.509 70.6177ZM162.273 61.5088V80H157.334V61.5088H162.273ZM157.027 56.6895C157.027 55.9717 157.278 55.3792 157.779 54.9121C158.28 54.445 158.952 54.2114 159.795 54.2114C160.627 54.2114 161.294 54.445 161.795 54.9121C162.308 55.3792 162.564 55.9717 162.564 56.6895C162.564 57.4072 162.308 57.9997 161.795 58.4668C161.294 58.9339 160.627 59.1675 159.795 59.1675C158.952 59.1675 158.28 58.9339 157.779 58.4668C157.278 57.9997 157.027 57.4072 157.027 56.6895ZM171.263 65.3369V80H166.324V61.5088H170.955L171.263 65.3369ZM170.579 70.105H169.212C169.212 68.8175 169.366 67.6326 169.673 66.5503C169.992 65.4565 170.454 64.5109 171.058 63.7134C171.673 62.9045 172.431 62.2778 173.331 61.8335C174.231 61.3892 175.273 61.167 176.458 61.167C177.278 61.167 178.03 61.2923 178.714 61.543C179.397 61.7822 179.984 62.1639 180.474 62.688C180.975 63.2007 181.363 63.8729 181.636 64.7046C181.91 65.5249 182.046 66.5104 182.046 67.6611V80H177.125V68.208C177.125 67.3649 177.011 66.7155 176.783 66.2598C176.555 65.804 176.23 65.485 175.809 65.3027C175.398 65.1204 174.903 65.0293 174.322 65.0293C173.684 65.0293 173.125 65.1603 172.647 65.4224C172.18 65.6844 171.792 66.049 171.485 66.5161C171.177 66.9718 170.949 67.5073 170.801 68.1226C170.653 68.7378 170.579 69.3986 170.579 70.105ZM181.585 69.541L179.825 69.7632C179.825 68.5555 179.973 67.4333 180.269 66.3965C180.577 65.3597 181.027 64.4482 181.619 63.6621C182.223 62.876 182.969 62.2664 183.858 61.8335C184.747 61.3892 185.772 61.167 186.934 61.167C187.823 61.167 188.632 61.298 189.361 61.5601C190.09 61.8107 190.711 62.2152 191.224 62.7734C191.748 63.3203 192.146 64.0381 192.42 64.9268C192.705 65.8154 192.847 66.9035 192.847 68.1909V80H187.908V68.1909C187.908 67.3364 187.794 66.687 187.566 66.2427C187.35 65.7869 187.031 65.4736 186.609 65.3027C186.199 65.1204 185.709 65.0293 185.14 65.0293C184.547 65.0293 184.029 65.1489 183.584 65.3882C183.14 65.616 182.77 65.9351 182.474 66.3452C182.177 66.7554 181.955 67.2339 181.807 67.7808C181.659 68.3162 181.585 68.903 181.585 69.541ZM225.933 55.1172V80H220.806L210.809 63.3203V80H205.682V55.1172H210.809L220.823 71.814V55.1172H225.933ZM240.066 75.8301V67.5928C240.066 67.0003 239.97 66.4933 239.776 66.0718C239.582 65.6388 239.28 65.3027 238.87 65.0635C238.471 64.8242 237.953 64.7046 237.315 64.7046C236.768 64.7046 236.295 64.8014 235.896 64.9951C235.498 65.1774 235.19 65.4451 234.974 65.7983C234.757 66.1401 234.649 66.5446 234.649 67.0117H229.727C229.727 66.2256 229.909 65.4793 230.274 64.7729C230.639 64.0666 231.168 63.4456 231.863 62.9102C232.558 62.3633 233.384 61.936 234.341 61.6284C235.31 61.3208 236.392 61.167 237.588 61.167C239.024 61.167 240.3 61.4062 241.417 61.8848C242.533 62.3633 243.41 63.0811 244.048 64.0381C244.698 64.9951 245.022 66.1914 245.022 67.627V75.5396C245.022 76.5535 245.085 77.3853 245.21 78.0347C245.336 78.6727 245.518 79.231 245.757 79.7095V80H240.784C240.545 79.4987 240.363 78.8721 240.237 78.1201C240.123 77.3568 240.066 76.5934 240.066 75.8301ZM240.716 68.7378L240.75 71.5234H237.999C237.349 71.5234 236.785 71.5975 236.307 71.7456C235.828 71.8937 235.435 72.1045 235.127 72.3779C234.82 72.64 234.592 72.9476 234.444 73.3008C234.307 73.654 234.239 74.0413 234.239 74.4629C234.239 74.8844 234.336 75.2661 234.529 75.6079C234.723 75.9383 235.002 76.2004 235.367 76.394C235.731 76.5763 236.159 76.6675 236.648 76.6675C237.389 76.6675 238.033 76.5194 238.58 76.2231C239.126 75.9269 239.548 75.5623 239.844 75.1294C240.152 74.6965 240.311 74.2863 240.323 73.8989L241.622 75.9839C241.439 76.451 241.189 76.9352 240.87 77.4365C240.562 77.9378 240.169 78.4106 239.69 78.855C239.212 79.2879 238.637 79.6468 237.964 79.9316C237.292 80.2051 236.495 80.3418 235.572 80.3418C234.398 80.3418 233.333 80.1082 232.376 79.6411C231.43 79.1626 230.678 78.5075 230.12 77.6758C229.573 76.8327 229.3 75.8757 229.3 74.8047C229.3 73.8363 229.482 72.9761 229.847 72.2241C230.211 71.4722 230.747 70.8398 231.453 70.3271C232.171 69.8031 233.065 69.41 234.136 69.1479C235.207 68.8745 236.449 68.7378 237.862 68.7378H240.716ZM253.619 53.75V80H248.697V53.75H253.619ZM252.918 70.105H251.568C251.579 68.8175 251.75 67.6326 252.081 66.5503C252.411 65.4565 252.884 64.5109 253.499 63.7134C254.114 62.9045 254.849 62.2778 255.704 61.8335C256.569 61.3892 257.527 61.167 258.575 61.167C259.486 61.167 260.312 61.298 261.053 61.5601C261.805 61.8107 262.448 62.2209 262.984 62.7905C263.531 63.3488 263.952 64.0837 264.249 64.9951C264.545 65.9066 264.693 67.0117 264.693 68.3105V80H259.737V68.2764C259.737 67.4561 259.617 66.8123 259.378 66.3452C259.15 65.8667 258.814 65.5306 258.37 65.3369C257.937 65.1318 257.401 65.0293 256.763 65.0293C256.057 65.0293 255.453 65.1603 254.952 65.4224C254.462 65.6844 254.069 66.049 253.772 66.5161C253.476 66.9718 253.26 67.5073 253.123 68.1226C252.986 68.7378 252.918 69.3986 252.918 70.105ZM273.631 53.75V80H268.692V53.75H273.631ZM286.209 80.3418C284.773 80.3418 283.486 80.1139 282.347 79.6582C281.207 79.1911 280.239 78.5474 279.441 77.7271C278.655 76.9067 278.051 75.9554 277.63 74.873C277.208 73.7793 276.998 72.6172 276.998 71.3867V70.7031C276.998 69.3018 277.197 68.02 277.596 66.8579C277.994 65.6958 278.564 64.6875 279.305 63.833C280.057 62.9785 280.968 62.3234 282.039 61.8677C283.11 61.4006 284.318 61.167 285.662 61.167C286.972 61.167 288.134 61.3835 289.148 61.8164C290.162 62.2493 291.011 62.8646 291.695 63.6621C292.39 64.4596 292.914 65.4167 293.267 66.5332C293.62 67.6383 293.797 68.8688 293.797 70.2246V72.2754H279.1V68.9941H288.96V68.6182C288.96 67.9346 288.835 67.325 288.584 66.7896C288.345 66.2427 287.981 65.8097 287.491 65.4907C287.001 65.1717 286.374 65.0122 285.611 65.0122C284.961 65.0122 284.403 65.1546 283.936 65.4395C283.469 65.7243 283.087 66.123 282.791 66.6357C282.506 67.1484 282.29 67.7523 282.142 68.4473C282.005 69.1309 281.937 69.8828 281.937 70.7031V71.3867C281.937 72.1273 282.039 72.8109 282.244 73.4375C282.461 74.0641 282.763 74.6053 283.15 75.061C283.549 75.5168 284.027 75.87 284.585 76.1206C285.155 76.3713 285.799 76.4966 286.517 76.4966C287.405 76.4966 288.231 76.3257 288.995 75.9839C289.769 75.6307 290.436 75.1009 290.994 74.3945L293.387 76.9922C292.999 77.5505 292.47 78.0859 291.797 78.5986C291.137 79.1113 290.339 79.5329 289.405 79.8633C288.471 80.1823 287.405 80.3418 286.209 80.3418Z" fill="#888888"/>
<rect x="92" y="181" width="1179" height="80" rx="13.3333" fill="#CCCCCC"/>
<path d="M111.667 196.333H310.333C312.911 196.333 315 198.423 315 201V241C315 243.577 312.911 245.667 310.333 245.667H111.667C109.089 245.667 107 243.577 107 241V201C107 198.423 109.089 196.333 111.667 196.333Z" fill="#1400FF" stroke="#888888" stroke-width="4"/>
<rect x="339" y="196.333" width="208" height="49.3333" rx="4.66667" fill="#1400FF" stroke="#888888" stroke-width="4"/>
<path d="M419.573 224.76L422.729 213.167H426.823L421.708 228.333H419.062L419.573 224.76ZM416.708 213.167L419.865 224.76L420.396 228.333H417.719L412.635 213.167H416.708ZM434.062 225.594V217.062H437.583V228.333H434.292L434.062 225.594ZM434.396 223.302L435.312 223.281C435.312 224.038 435.222 224.74 435.042 225.385C434.861 226.024 434.594 226.58 434.24 227.052C433.892 227.524 433.462 227.892 432.948 228.156C432.441 228.413 431.854 228.542 431.187 228.542C430.632 228.542 430.122 228.465 429.656 228.312C429.198 228.153 428.802 227.906 428.469 227.573C428.135 227.233 427.875 226.799 427.687 226.271C427.507 225.736 427.417 225.097 427.417 224.354V217.062H430.927V224.375C430.927 224.625 430.958 224.84 431.021 225.021C431.083 225.201 431.174 225.354 431.292 225.479C431.41 225.597 431.556 225.687 431.729 225.75C431.91 225.806 432.115 225.833 432.344 225.833C432.872 225.833 433.285 225.722 433.583 225.5C433.882 225.278 434.09 224.976 434.208 224.594C434.333 224.212 434.396 223.781 434.396 223.302ZM444.979 228.542C444.063 228.542 443.243 228.399 442.521 228.115C441.799 227.823 441.188 227.424 440.688 226.917C440.194 226.41 439.816 225.826 439.552 225.167C439.295 224.507 439.167 223.809 439.167 223.073V222.677C439.167 221.851 439.281 221.087 439.51 220.385C439.74 219.677 440.08 219.059 440.531 218.531C440.983 218.003 441.549 217.594 442.229 217.302C442.91 217.003 443.701 216.854 444.604 216.854C445.403 216.854 446.118 216.983 446.75 217.24C447.382 217.497 447.917 217.865 448.354 218.344C448.799 218.823 449.135 219.403 449.365 220.083C449.601 220.764 449.719 221.528 449.719 222.375V223.802H440.51V221.604H446.292V221.333C446.299 220.958 446.233 220.639 446.094 220.375C445.962 220.111 445.767 219.91 445.51 219.771C445.253 219.632 444.941 219.562 444.573 219.562C444.191 219.562 443.875 219.646 443.625 219.812C443.382 219.979 443.191 220.208 443.052 220.5C442.92 220.785 442.826 221.115 442.771 221.49C442.715 221.865 442.688 222.26 442.688 222.677V223.073C442.688 223.49 442.743 223.868 442.854 224.208C442.972 224.549 443.139 224.84 443.354 225.083C443.576 225.319 443.84 225.503 444.146 225.635C444.458 225.767 444.813 225.833 445.208 225.833C445.688 225.833 446.16 225.743 446.625 225.562C447.09 225.382 447.49 225.083 447.823 224.667L449.417 226.562C449.188 226.889 448.861 227.205 448.438 227.51C448.021 227.816 447.521 228.066 446.938 228.26C446.354 228.448 445.701 228.542 444.979 228.542ZM451.375 226.687C451.375 226.187 451.556 225.771 451.917 225.437C452.278 225.097 452.743 224.927 453.313 224.927C453.889 224.927 454.354 225.097 454.708 225.437C455.069 225.771 455.25 226.187 455.25 226.687C455.25 227.187 455.069 227.608 454.708 227.948C454.354 228.281 453.889 228.448 453.313 228.448C452.743 228.448 452.278 228.281 451.917 227.948C451.556 227.608 451.375 227.187 451.375 226.687ZM457.865 217.062H461.385V228.698C461.385 229.601 461.212 230.361 460.865 230.979C460.517 231.604 460.021 232.076 459.375 232.396C458.729 232.722 457.958 232.885 457.062 232.885C456.764 232.885 456.49 232.872 456.24 232.844C455.983 232.823 455.701 232.778 455.396 232.708V230.052C455.576 230.08 455.743 230.101 455.896 230.115C456.049 230.135 456.215 230.146 456.396 230.146C456.715 230.146 456.983 230.094 457.198 229.99C457.413 229.885 457.576 229.726 457.687 229.51C457.806 229.295 457.865 229.024 457.865 228.698V217.062ZM457.604 214.156C457.604 213.656 457.785 213.247 458.146 212.927C458.507 212.608 458.976 212.448 459.552 212.448C460.128 212.448 460.597 212.608 460.958 212.927C461.319 213.247 461.5 213.656 461.5 214.156C461.5 214.656 461.319 215.066 460.958 215.385C460.597 215.705 460.128 215.865 459.552 215.865C458.976 215.865 458.507 215.705 458.146 215.385C457.785 215.066 457.604 214.656 457.604 214.156ZM469.281 225.167C469.281 224.972 469.215 224.806 469.083 224.667C468.958 224.521 468.736 224.389 468.417 224.271C468.097 224.146 467.649 224.021 467.073 223.896C466.524 223.778 466.007 223.622 465.521 223.427C465.042 223.233 464.622 222.997 464.26 222.719C463.899 222.441 463.615 222.111 463.406 221.729C463.205 221.347 463.104 220.91 463.104 220.417C463.104 219.937 463.205 219.486 463.406 219.062C463.615 218.632 463.917 218.253 464.312 217.927C464.715 217.594 465.205 217.333 465.781 217.146C466.358 216.951 467.014 216.854 467.75 216.854C468.764 216.854 469.639 217.01 470.375 217.323C471.111 217.628 471.677 218.059 472.073 218.615C472.476 219.163 472.677 219.799 472.677 220.521H469.167C469.167 220.236 469.118 219.993 469.021 219.792C468.931 219.59 468.781 219.437 468.573 219.333C468.365 219.222 468.087 219.167 467.74 219.167C467.497 219.167 467.274 219.212 467.073 219.302C466.878 219.392 466.722 219.517 466.604 219.677C466.486 219.837 466.427 220.024 466.427 220.24C466.427 220.392 466.462 220.531 466.531 220.656C466.608 220.774 466.722 220.885 466.875 220.99C467.028 221.087 467.222 221.177 467.458 221.26C467.694 221.337 467.979 221.406 468.312 221.469C469.069 221.608 469.778 221.806 470.437 222.062C471.097 222.319 471.632 222.684 472.042 223.156C472.458 223.628 472.667 224.264 472.667 225.062C472.667 225.562 472.552 226.024 472.323 226.448C472.094 226.865 471.764 227.233 471.333 227.552C470.903 227.865 470.385 228.108 469.781 228.281C469.177 228.455 468.497 228.542 467.74 228.542C466.663 228.542 465.753 228.351 465.01 227.969C464.267 227.58 463.705 227.094 463.323 226.51C462.948 225.92 462.76 225.323 462.76 224.719H466.031C466.045 225.066 466.128 225.351 466.281 225.573C466.441 225.795 466.653 225.958 466.917 226.062C467.181 226.167 467.486 226.219 467.833 226.219C468.153 226.219 468.417 226.174 468.625 226.083C468.84 225.993 469.003 225.872 469.115 225.719C469.226 225.559 469.281 225.375 469.281 225.167Z" fill="white"/>
<path d="M575.667 196.333H774.333C776.911 196.333 779 198.423 779 201V241C779 243.577 776.911 245.667 774.333 245.667H575.667C573.089 245.667 571 243.577 571 241V201C571 198.423 573.089 196.333 575.667 196.333Z" fill="#1400FF" stroke="#1400FF" stroke-width="4"/>
<path d="M648.458 228.333H645.094L645.115 225.521H648.458C649.153 225.521 649.74 225.354 650.219 225.021C650.705 224.687 651.073 224.191 651.323 223.531C651.58 222.865 651.708 222.045 651.708 221.073V220.417C651.708 219.687 651.635 219.049 651.49 218.5C651.351 217.944 651.142 217.483 650.865 217.115C650.587 216.74 650.24 216.458 649.823 216.271C649.413 216.083 648.941 215.99 648.406 215.99H645.031V213.167H648.406C649.434 213.167 650.375 213.344 651.229 213.698C652.09 214.045 652.833 214.545 653.458 215.198C654.09 215.844 654.576 216.611 654.917 217.5C655.264 218.382 655.438 219.361 655.438 220.437V221.073C655.438 222.142 655.264 223.122 654.917 224.01C654.576 224.899 654.094 225.667 653.469 226.312C652.844 226.958 652.104 227.458 651.25 227.812C650.403 228.16 649.472 228.333 648.458 228.333ZM647.188 213.167V228.333H643.531V213.167H647.188ZM657.438 217.062H660.958V228.698C660.958 229.601 660.785 230.361 660.438 230.979C660.09 231.604 659.594 232.076 658.948 232.396C658.302 232.722 657.531 232.885 656.635 232.885C656.337 232.885 656.062 232.872 655.812 232.844C655.556 232.823 655.274 232.778 654.969 232.708V230.052C655.149 230.08 655.316 230.101 655.469 230.115C655.622 230.135 655.788 230.146 655.969 230.146C656.288 230.146 656.556 230.094 656.771 229.99C656.986 229.885 657.149 229.726 657.26 229.51C657.378 229.295 657.438 229.024 657.438 228.698V217.062ZM657.177 214.156C657.177 213.656 657.358 213.247 657.719 212.927C658.08 212.608 658.549 212.448 659.125 212.448C659.701 212.448 660.17 212.608 660.531 212.927C660.892 213.247 661.073 213.656 661.073 214.156C661.073 214.656 660.892 215.066 660.531 215.385C660.17 215.705 659.701 215.865 659.125 215.865C658.549 215.865 658.08 215.705 657.719 215.385C657.358 215.066 657.177 214.656 657.177 214.156ZM668.802 225.5V220.854C668.802 220.535 668.757 220.26 668.667 220.031C668.576 219.802 668.434 219.625 668.24 219.5C668.045 219.368 667.785 219.302 667.458 219.302C667.194 219.302 666.969 219.347 666.781 219.437C666.594 219.528 666.451 219.663 666.354 219.844C666.257 220.024 666.208 220.253 666.208 220.531H662.698C662.698 220.01 662.813 219.528 663.042 219.083C663.278 218.632 663.611 218.24 664.042 217.906C664.479 217.573 665 217.316 665.604 217.135C666.215 216.948 666.896 216.854 667.646 216.854C668.542 216.854 669.34 217.003 670.042 217.302C670.75 217.601 671.309 218.049 671.719 218.646C672.128 219.236 672.333 219.979 672.333 220.875V225.49C672.333 226.226 672.375 226.785 672.458 227.167C672.542 227.542 672.66 227.872 672.813 228.156V228.333H669.292C669.125 227.986 669 227.562 668.917 227.062C668.84 226.556 668.802 226.035 668.802 225.5ZM669.229 221.448L669.25 223.323H667.698C667.372 223.323 667.094 223.368 666.865 223.458C666.642 223.549 666.462 223.674 666.323 223.833C666.191 223.986 666.094 224.16 666.031 224.354C665.976 224.549 665.948 224.753 665.948 224.969C665.948 225.177 665.997 225.365 666.094 225.531C666.198 225.691 666.337 225.816 666.51 225.906C666.684 225.997 666.878 226.042 667.094 226.042C667.483 226.042 667.813 225.969 668.083 225.823C668.361 225.67 668.573 225.486 668.719 225.271C668.865 225.056 668.938 224.854 668.938 224.667L669.708 226.104C669.569 226.382 669.41 226.663 669.229 226.948C669.056 227.233 668.837 227.497 668.573 227.74C668.316 227.976 668 228.17 667.625 228.323C667.25 228.469 666.795 228.542 666.26 228.542C665.566 228.542 664.927 228.399 664.344 228.115C663.767 227.83 663.306 227.434 662.958 226.927C662.611 226.413 662.438 225.823 662.438 225.156C662.438 224.573 662.542 224.052 662.75 223.594C662.965 223.135 663.288 222.747 663.719 222.427C664.149 222.108 664.698 221.865 665.365 221.698C666.031 221.531 666.816 221.448 667.719 221.448H669.229ZM677.729 219.469V228.333H674.219V217.062H677.51L677.729 219.469ZM677.313 222.312L676.49 222.333C676.49 221.472 676.594 220.705 676.802 220.031C677.01 219.351 677.306 218.774 677.688 218.302C678.069 217.83 678.524 217.472 679.052 217.229C679.587 216.979 680.181 216.854 680.833 216.854C681.354 216.854 681.83 216.931 682.26 217.083C682.698 217.236 683.073 217.483 683.385 217.823C683.705 218.163 683.948 218.615 684.115 219.177C684.288 219.733 684.375 220.42 684.375 221.24V228.333H680.844V221.229C680.844 220.778 680.781 220.434 680.656 220.198C680.531 219.955 680.351 219.788 680.115 219.698C679.878 219.608 679.59 219.562 679.25 219.562C678.889 219.562 678.583 219.632 678.333 219.771C678.083 219.91 677.882 220.104 677.729 220.354C677.583 220.597 677.476 220.885 677.406 221.219C677.344 221.552 677.313 221.917 677.313 222.312ZM693.406 217.062H696.594V227.896C696.594 228.937 696.354 229.819 695.875 230.542C695.396 231.271 694.726 231.823 693.865 232.198C693.01 232.58 692.01 232.771 690.865 232.771C690.358 232.771 689.84 232.705 689.313 232.573C688.785 232.448 688.292 232.26 687.833 232.01C687.375 231.76 686.99 231.451 686.677 231.083L688.146 229.021C688.431 229.34 688.788 229.611 689.219 229.833C689.649 230.062 690.156 230.177 690.74 230.177C691.247 230.177 691.67 230.087 692.01 229.906C692.358 229.726 692.622 229.462 692.802 229.115C692.983 228.774 693.073 228.361 693.073 227.875V219.729L693.406 217.062ZM685.917 222.833V222.615C685.917 221.76 686.021 220.983 686.229 220.281C686.444 219.573 686.75 218.965 687.146 218.458C687.549 217.944 688.035 217.549 688.604 217.271C689.174 216.993 689.816 216.854 690.531 216.854C691.302 216.854 691.934 217.003 692.427 217.302C692.927 217.594 693.326 218.003 693.625 218.531C693.931 219.059 694.167 219.677 694.333 220.385C694.507 221.087 694.653 221.844 694.771 222.656V222.917C694.653 223.681 694.49 224.403 694.281 225.083C694.08 225.757 693.816 226.354 693.49 226.875C693.163 227.396 692.753 227.806 692.26 228.104C691.774 228.396 691.191 228.542 690.51 228.542C689.802 228.542 689.163 228.399 688.594 228.115C688.031 227.83 687.549 227.431 687.146 226.917C686.75 226.403 686.444 225.799 686.229 225.104C686.021 224.41 685.917 223.653 685.917 222.833ZM689.427 222.615V222.833C689.427 223.257 689.465 223.649 689.542 224.01C689.625 224.372 689.75 224.691 689.917 224.969C690.083 225.24 690.288 225.451 690.531 225.604C690.781 225.757 691.073 225.833 691.406 225.833C691.913 225.833 692.323 225.726 692.635 225.51C692.948 225.295 693.174 224.99 693.313 224.594C693.451 224.198 693.51 223.733 693.49 223.198V222.375C693.503 221.917 693.472 221.514 693.396 221.167C693.319 220.812 693.198 220.517 693.031 220.281C692.872 220.045 692.656 219.868 692.385 219.75C692.122 219.625 691.802 219.562 691.427 219.562C691.101 219.562 690.813 219.639 690.563 219.792C690.313 219.944 690.104 220.16 689.938 220.437C689.771 220.708 689.642 221.031 689.552 221.406C689.469 221.774 689.427 222.177 689.427 222.615ZM698.177 222.812V222.594C698.177 221.767 698.295 221.007 698.531 220.312C698.767 219.611 699.115 219.003 699.573 218.49C700.031 217.976 700.597 217.576 701.271 217.292C701.944 217 702.722 216.854 703.604 216.854C704.493 216.854 705.274 217 705.948 217.292C706.628 217.576 707.198 217.976 707.656 218.49C708.115 219.003 708.462 219.611 708.698 220.312C708.934 221.007 709.052 221.767 709.052 222.594V222.812C709.052 223.632 708.934 224.392 708.698 225.094C708.462 225.788 708.115 226.396 707.656 226.917C707.198 227.431 706.632 227.83 705.958 228.115C705.285 228.399 704.507 228.542 703.625 228.542C702.743 228.542 701.962 228.399 701.281 228.115C700.601 227.83 700.031 227.431 699.573 226.917C699.115 226.396 698.767 225.788 698.531 225.094C698.295 224.392 698.177 223.632 698.177 222.812ZM701.688 222.594V222.812C701.688 223.236 701.719 223.632 701.781 224C701.844 224.368 701.948 224.691 702.094 224.969C702.24 225.24 702.438 225.451 702.688 225.604C702.938 225.757 703.25 225.833 703.625 225.833C703.993 225.833 704.299 225.757 704.542 225.604C704.792 225.451 704.99 225.24 705.135 224.969C705.281 224.691 705.385 224.368 705.448 224C705.51 223.632 705.542 223.236 705.542 222.812V222.594C705.542 222.184 705.51 221.799 705.448 221.437C705.385 221.069 705.281 220.747 705.135 220.469C704.99 220.184 704.792 219.962 704.542 219.802C704.292 219.642 703.979 219.562 703.604 219.562C703.236 219.562 702.927 219.642 702.677 219.802C702.434 219.962 702.24 220.184 702.094 220.469C701.948 220.747 701.844 221.069 701.781 221.437C701.719 221.799 701.688 222.184 701.688 222.594Z" fill="white"/>
<path d="M808.667 196.333H1007.33C1009.91 196.333 1012 198.423 1012 201V241C1012 243.577 1009.91 245.667 1007.33 245.667H808.667C806.089 245.667 804 243.577 804 241V201C804 198.423 806.089 196.333 808.667 196.333Z" fill="#1400FF" stroke="#1400FF" stroke-width="4"/>
<path d="M899.417 224.302C899.417 224.066 899.382 223.854 899.312 223.667C899.243 223.472 899.115 223.292 898.927 223.125C898.74 222.958 898.469 222.792 898.115 222.625C897.767 222.451 897.309 222.271 896.74 222.083C896.073 221.861 895.431 221.611 894.812 221.333C894.194 221.049 893.642 220.719 893.156 220.344C892.67 219.962 892.285 219.517 892 219.01C891.715 218.497 891.573 217.899 891.573 217.219C891.573 216.566 891.719 215.979 892.01 215.458C892.302 214.931 892.708 214.483 893.229 214.115C893.757 213.74 894.375 213.455 895.083 213.26C895.792 213.059 896.566 212.958 897.406 212.958C898.517 212.958 899.497 213.153 900.344 213.542C901.198 213.924 901.865 214.469 902.344 215.177C902.83 215.878 903.073 216.708 903.073 217.667H899.437C899.437 217.285 899.358 216.948 899.198 216.656C899.045 216.365 898.812 216.135 898.5 215.969C898.187 215.802 897.795 215.719 897.323 215.719C896.865 215.719 896.479 215.788 896.167 215.927C895.854 216.066 895.618 216.253 895.458 216.49C895.299 216.719 895.219 216.972 895.219 217.25C895.219 217.479 895.281 217.687 895.406 217.875C895.538 218.056 895.722 218.226 895.958 218.385C896.201 218.545 896.493 218.698 896.833 218.844C897.181 218.99 897.569 219.132 898 219.271C898.806 219.528 899.521 219.816 900.146 220.135C900.778 220.448 901.309 220.806 901.74 221.208C902.177 221.604 902.507 222.056 902.729 222.562C902.958 223.069 903.073 223.642 903.073 224.281C903.073 224.962 902.941 225.566 902.677 226.094C902.413 226.622 902.035 227.069 901.542 227.437C901.049 227.799 900.458 228.073 899.771 228.26C899.083 228.448 898.316 228.542 897.469 228.542C896.691 228.542 895.924 228.444 895.167 228.25C894.417 228.049 893.736 227.743 893.125 227.333C892.514 226.917 892.024 226.385 891.656 225.74C891.295 225.087 891.115 224.312 891.115 223.417H894.781C894.781 223.861 894.84 224.236 894.958 224.542C895.076 224.847 895.25 225.094 895.479 225.281C895.708 225.462 895.99 225.594 896.323 225.677C896.656 225.753 897.038 225.792 897.469 225.792C897.934 225.792 898.309 225.726 898.594 225.594C898.878 225.455 899.087 225.274 899.219 225.052C899.351 224.823 899.417 224.573 899.417 224.302ZM911.271 232.667V219.427L911.76 217.062H914.802V232.667H911.271ZM904.354 222.802V222.583C904.354 221.729 904.448 220.951 904.635 220.25C904.823 219.542 905.101 218.937 905.469 218.437C905.837 217.931 906.292 217.542 906.833 217.271C907.382 216.993 908.014 216.854 908.729 216.854C909.403 216.854 909.979 217 910.458 217.292C910.944 217.583 911.351 217.993 911.677 218.521C912.003 219.042 912.267 219.653 912.469 220.354C912.677 221.056 912.84 221.812 912.958 222.625V222.885C912.84 223.649 912.677 224.372 912.469 225.052C912.267 225.733 912.003 226.337 911.677 226.865C911.351 227.385 910.944 227.795 910.458 228.094C909.972 228.392 909.389 228.542 908.708 228.542C908 228.542 907.375 228.399 906.833 228.115C906.292 227.823 905.837 227.42 905.469 226.906C905.101 226.385 904.823 225.778 904.635 225.083C904.448 224.382 904.354 223.622 904.354 222.802ZM907.865 222.583V222.802C907.865 223.226 907.892 223.622 907.948 223.99C908.003 224.351 908.097 224.67 908.229 224.948C908.368 225.226 908.549 225.444 908.771 225.604C908.993 225.757 909.271 225.833 909.604 225.833C910.111 225.833 910.51 225.722 910.802 225.5C911.094 225.278 911.299 224.969 911.417 224.573C911.535 224.17 911.583 223.701 911.562 223.167V222.344C911.569 221.885 911.542 221.483 911.479 221.135C911.417 220.788 911.309 220.5 911.156 220.271C911.01 220.035 910.812 219.858 910.562 219.74C910.312 219.622 910 219.562 909.625 219.562C909.299 219.562 909.021 219.639 908.792 219.792C908.569 219.937 908.389 220.146 908.25 220.417C908.118 220.687 908.021 221.007 907.958 221.375C907.896 221.743 907.865 222.146 907.865 222.583ZM920.5 212.333V228.333H916.979V212.333H920.5ZM926.375 217.062V228.333H922.854V217.062H926.375ZM922.646 214.156C922.646 213.656 922.826 213.247 923.187 212.927C923.549 212.608 924.017 212.448 924.594 212.448C925.17 212.448 925.639 212.608 926 212.927C926.361 213.247 926.542 213.656 926.542 214.156C926.542 214.656 926.361 215.066 926 215.385C925.639 215.705 925.17 215.865 924.594 215.865C924.017 215.865 923.549 215.705 923.187 215.385C922.826 215.066 922.646 214.656 922.646 214.156Z" fill="white"/>
<rect x="1037" y="196.333" width="208" height="49.3333" rx="4.66667" fill="#1400FF" stroke="#888888" stroke-width="4"/>
</svg>
